<?xml version="1.0" encoding="utf-8"?>
<!-- Generator: Adobe Illustrator 23.0.2, SVG Export Plug-In . SVG Version: 6.00 Build 0)  -->
<svg version="1.1" id="Слой_1" xmlns="http://www.w3.org/2000/svg" xmlns:xlink="http://www.w3.org/1999/xlink" x="0px" y="0px"
	 viewBox="0 0 24 24" style="enable-background:new 0 0 24 24;" xml:space="preserve" width="24" height="24">
<style type="text/css">
	.st0{fill:none;}
	.st1{enable-background:new    ;}
	.st2{fill:#7F8897;}
</style>
<g>
	<rect class="st0" width="24" height="24"/>
</g>
<g class="st1">
	<path class="st2" d="M9.5,3.1c1.8,0,3.4,0.7,4.6,1.9C15.3,6.3,16,7.8,16,9.6c0,0.8-0.1,1.6-0.4,2.3s-0.6,1.4-1.1,1.9l0.3,0.3h0.8
		l5,5L19,20.6l-5-5v-0.8l-0.3-0.3c-0.6,0.5-1.2,0.9-1.9,1.1c-0.7,0.3-1.5,0.4-2.3,0.4c-1.8,0-3.4-0.7-4.6-1.9C3.7,13,3,11.5,3,9.6
		C3,7.8,3.7,6.3,4.9,5C6.1,3.8,7.7,3.2,9.5,3.1z M9.5,5.1c-1.3,0-2.3,0.5-3.2,1.3S5.1,8.4,5.1,9.6s0.4,2.3,1.3,3.2s1.9,1.3,3.2,1.3
		c1.3,0,2.3-0.4,3.2-1.3S14,10.9,14,9.6s-0.4-2.3-1.3-3.2S10.8,5.2,9.5,5.1z"/>
</g>
</svg>
